<svg xmlns="http://www.w3.org/2000/svg" width="1600" height="900" viewBox="0 0 1600 900" fill="none">
  <defs>
    <linearGradient id="bg" x1="0" y1="0" x2="1600" y2="900" gradientUnits="userSpaceOnUse">
      <stop stop-color="#FFF7EF"/>
      <stop offset="1" stop-color="#FDEEDC"/>
    </linearGradient>
    <filter id="shadow" x="-20%" y="-20%" width="140%" height="140%">
      <feDropShadow dx="0" dy="10" stdDeviation="14" flood-color="#C98D5B" flood-opacity="0.18"/>
    </filter>
    <style>
      .title { font: 900 220px Arial, Helvetica, sans-serif; fill: #5B3A29; }
      .subtitle { font: 700 52px Arial, Helvetica, sans-serif; fill: #7A5540; }
      .body { font: 400 28px Arial, Helvetica, sans-serif; fill: #8E6A52; }
      .line { stroke: #5B3A29; stroke-width: 6; stroke-linecap: round; stroke-linejoin: round; fill: none; }
      .softline { stroke: #7A5540; stroke-width: 4; stroke-linecap: round; stroke-linejoin: round; fill: none; }
      .tag { font: 700 20px Arial, Helvetica, sans-serif; fill: #5B3A29; }
    </style>
  </defs>

  <rect width="1600" height="900" fill="url(#bg)"/>

  <g opacity="0.12">
    <g transform="translate(150 130) rotate(-18)">
      <circle cx="0" cy="0" r="18" fill="#C88B58"/>
      <circle cx="-28" cy="-24" r="9" fill="#C88B58"/>
      <circle cx="0" cy="-34" r="9" fill="#C88B58"/>
      <circle cx="28" cy="-24" r="9" fill="#C88B58"/>
      <circle cx="42" cy="2" r="9" fill="#C88B58"/>
    </g>
    <g transform="translate(1410 170) rotate(15) scale(0.85)">
      <circle cx="0" cy="0" r="18" fill="#C88B58"/>
      <circle cx="-28" cy="-24" r="9" fill="#C88B58"/>
      <circle cx="0" cy="-34" r="9" fill="#C88B58"/>
      <circle cx="28" cy="-24" r="9" fill="#C88B58"/>
      <circle cx="42" cy="2" r="9" fill="#C88B58"/>
    </g>
  </g>

  <g filter="url(#shadow)">
    <text x="800" y="360" text-anchor="middle" class="title">404</text>
  </g>
  <text x="800" y="445" text-anchor="middle" class="subtitle">Oops! These pets couldn’t find the page.</text>
  <text x="800" y="495" text-anchor="middle" class="body">They’re sniffing around, but this page seems to have run away.</text>

  <g transform="translate(250 560)">
    <circle cx="225" cy="42" r="38" fill="#DFF2FF" stroke="#5B3A29" stroke-width="8"/>
    <rect x="248" y="67" width="16" height="74" rx="8" transform="rotate(-35 248 67)" fill="#5B3A29"/>
    <ellipse cx="90" cy="165" rx="82" ry="95" fill="#E9C091"/>
    <ellipse cx="94" cy="154" rx="58" ry="70" fill="#E1B17D"/>
    <circle cx="102" cy="70" r="68" fill="#F0C99C"/>
    <ellipse cx="45" cy="55" rx="25" ry="40" transform="rotate(-20 45 55)" fill="#D9A16E"/>
    <ellipse cx="159" cy="55" rx="25" ry="40" transform="rotate(20 159 55)" fill="#D9A16E"/>
    <circle cx="78" cy="70" r="10" fill="#3D291E"/>
    <circle cx="126" cy="70" r="10" fill="#3D291E"/>
    <circle cx="81" cy="66" r="3" fill="#fff"/>
    <circle cx="129" cy="66" r="3" fill="#fff"/>
    <ellipse cx="102" cy="97" rx="28" ry="22" fill="#F7E0C9"/>
    <ellipse cx="102" cy="90" rx="10" ry="7" fill="#3D291E"/>
    <path d="M102 97 C100 108, 92 110, 84 114" class="softline"/>
    <path d="M102 97 C104 108, 112 110, 120 114" class="softline"/>
    <ellipse cx="52" cy="244" rx="22" ry="18" fill="#F0C99C"/>
    <ellipse cx="128" cy="244" rx="22" ry="18" fill="#F0C99C"/>
    <path d="M165 155 C210 130, 215 95, 198 72" class="line"/>
    <rect x="12" y="285" width="175" height="40" rx="20" fill="#FFE5C7"/>
    <text x="100" y="311" text-anchor="middle" class="tag">Still sniffing...</text>
  </g>

  <g transform="translate(640 555)">
    <ellipse cx="110" cy="168" rx="78" ry="88" fill="#BDB4FF"/>
    <ellipse cx="113" cy="160" rx="53" ry="62" fill="#A39AF0"/>
    <circle cx="110" cy="78" r="62" fill="#C9C2FF"/>
    <path d="M62 40 L80 -8 L102 42 Z" fill="#C9C2FF"/>
    <path d="M118 42 L141 -8 L157 40 Z" fill="#C9C2FF"/>
    <path d="M77 28 L84 8 L93 30 Z" fill="#E9A8B2"/>
    <path d="M127 30 L136 8 L143 28 Z" fill="#E9A8B2"/>
    <ellipse cx="90" cy="78" rx="12" ry="16" fill="#fff"/>
    <ellipse cx="130" cy="78" rx="12" ry="16" fill="#fff"/>
    <circle cx="95" cy="80" r="7" fill="#3D291E"/>
    <circle cx="135" cy="72" r="7" fill="#3D291E"/>
    <circle cx="97" cy="77" r="2" fill="#fff"/>
    <circle cx="137" cy="69" r="2" fill="#fff"/>
    <path d="M110 92 L101 100 H119 Z" fill="#E7A3A0"/>
    <path d="M110 100 C105 110, 98 112, 92 116" class="softline"/>
    <path d="M110 100 C115 110, 122 112, 128 116" class="softline"/>
    <path d="M55 98 H87" class="softline"/>
    <path d="M55 112 H85" class="softline"/>
    <path d="M133 98 H165" class="softline"/>
    <path d="M135 112 H165" class="softline"/>
    <ellipse cx="77" cy="242" rx="20" ry="16" fill="#C9C2FF"/>
    <ellipse cx="142" cy="242" rx="20" ry="16" fill="#C9C2FF"/>
    <path d="M185 168 C235 150, 247 105, 225 78 C208 58, 182 66, 186 92" class="line"/>
    <path d="M205 18 l0 20 M195 28 l20 0 M220 52 l0 14 M213 59 l14 0" stroke="#E59B63" stroke-width="6" stroke-linecap="round"/>
  </g>

  <g transform="translate(1230 210)">
    <ellipse cx="78" cy="92" rx="62" ry="52" fill="#9EE7D7"/>
    <circle cx="84" cy="54" r="38" fill="#AEEFE1"/>
    <path d="M40 90 C10 78, 0 56, 3 34 C22 45, 35 59, 44 78" fill="#74D3C4"/>
    <path d="M118 58 L150 72 L118 82 Z" fill="#E59B63"/>
    <circle cx="75" cy="50" r="7" fill="#3D291E"/>
    <circle cx="77" cy="47" r="2" fill="#fff"/>
    <path d="M74 25 C85 10, 95 6, 102 8" class="softline"/>
    <path d="M96 108 Q70 120 50 140" class="softline"/>
    <path d="M62 143 Q92 127 118 138" class="softline"/>
    <rect x="20" y="156" width="118" height="36" rx="18" fill="#E5FAF6"/>
    <text x="79" y="180" text-anchor="middle" class="tag">No page here!</text>
  </g>

  <g transform="translate(1180 560)">
    <ellipse cx="118" cy="168" rx="78" ry="86" fill="#FFD5EA"/>
    <circle cx="118" cy="84" r="60" fill="#FFE3F1"/>
    <ellipse cx="92" cy="12" rx="18" ry="56" fill="#FFE3F1"/>
    <ellipse cx="144" cy="12" rx="18" ry="56" fill="#FFE3F1"/>
    <ellipse cx="92" cy="14" rx="8" ry="42" fill="#F5A8C6"/>
    <ellipse cx="144" cy="14" rx="8" ry="42" fill="#F5A8C6"/>
    <circle cx="98" cy="82" r="9" fill="#3D291E"/>
    <circle cx="138" cy="82" r="9" fill="#3D291E"/>
    <circle cx="101" cy="79" r="2" fill="#fff"/>
    <circle cx="141" cy="79" r="2" fill="#fff"/>
    <ellipse cx="118" cy="102" rx="12" ry="8" fill="#E7A3A0"/>
    <path d="M118 110 V126" class="softline"/>
    <path d="M118 126 C110 138, 101 138, 94 133" class="softline"/>
    <path d="M118 126 C126 138, 135 138, 142 133" class="softline"/>
    <ellipse cx="84" cy="241" rx="20" ry="15" fill="#FFE3F1"/>
    <ellipse cx="152" cy="241" rx="20" ry="15" fill="#FFE3F1"/>
    <circle cx="31" cy="112" r="22" fill="#5B3A29"/>
    <circle cx="68" cy="112" r="22" fill="#5B3A29"/>
    <rect x="31" y="90" width="37" height="44" rx="10" fill="#5B3A29"/>
    <circle cx="31" cy="112" r="11" fill="#D8ECFF"/>
    <circle cx="68" cy="112" r="11" fill="#D8ECFF"/>
  </g>

  <path d="M0 815 C220 770, 460 840, 700 810 C930 781, 1160 742, 1600 818 V900 H0 Z" fill="#F6DFC2"/>

  <g transform="translate(760 540) rotate(-8)">
    <rect x="0" y="18" width="110" height="28" rx="14" fill="#8ED4FF" stroke="#5B3A29" stroke-width="5"/>
    <circle cx="10" cy="18" r="18" fill="#8ED4FF" stroke="#5B3A29" stroke-width="5"/>
    <circle cx="10" cy="46" r="18" fill="#8ED4FF" stroke="#5B3A29" stroke-width="5"/>
    <circle cx="100" cy="18" r="18" fill="#8ED4FF" stroke="#5B3A29" stroke-width="5"/>
    <circle cx="100" cy="46" r="18" fill="#8ED4FF" stroke="#5B3A29" stroke-width="5"/>
  </g>
</svg>
