<svg xmlns="http://www.w3.org/2000/svg" width="164" height="40" viewBox="0 0 164 40" fill="none">
  <g id="icon">
    <path d="M8 28 Q12 16 20 14 Q28 12 32 24 Q30 32 20 34 Q10 36 8 28Z" fill="#DE9C6F" fill-opacity="0.8"/>
    <circle cx="14" cy="18" r="3" fill="#DE9C6F"/>
    <circle cx="22" cy="14" r="2" fill="#DE9C6F"/>
  </g>
  <path id="wordmark" d="M50 5.1 Q50 4.73 50.273 4.464 Q50.547 4.197 50.902 4.197 Q51.244 4.197 51.504 4.457 Q51.764 4.717 51.777 5.059 Q51.859 7.793 52.023 10.124 Q52.188 12.455 52.447 14.369 Q53.336 20.945 54.963 22.094 Q55.195 22.271 55.339 22.23 Q55.482 22.189 55.715 22.012 Q56.111 21.697 56.501 21.15 Q56.891 20.604 57.301 19.838 Q57.711 19.072 58.073 18.108 Q58.436 17.145 58.777 16.01 Q60.268 10.951 60.432 4.936 Q60.445 4.512 60.712 4.307 Q60.979 4.102 61.307 4.102 Q61.635 4.102 61.915 4.307 Q62.195 4.512 62.209 4.922 Q62.605 14.383 64.684 19.332 Q65.285 20.754 65.887 21.52 Q66.516 22.326 66.885 22.436 Q67.295 22.559 67.541 22.545 Q68.088 22.504 68.689 21.615 Q69.428 20.549 69.865 18.977 Q70.303 17.404 70.487 15.524 Q70.672 13.645 70.672 11.648 Q70.672 10.063 70.576 8.47 Q70.48 6.877 70.316 5.4 Q70.316 5.346 70.316 5.291 Q70.316 4.881 70.597 4.662 Q70.877 4.443 71.219 4.443 Q71.52 4.443 71.779 4.628 Q72.039 4.813 72.08 5.209 Q72.244 6.74 72.347 8.36 Q72.449 9.98 72.449 11.58 Q72.449 13.781 72.224 15.853 Q71.998 17.924 71.499 19.667 Q71 21.41 70.152 22.627 Q69.715 23.256 69.031 23.796 Q68.348 24.336 67.418 24.336 Q66.926 24.336 66.434 24.158 Q65.367 23.775 64.574 22.75 Q64.178 22.23 63.74 21.424 Q63.303 20.617 62.838 19.523 Q61.908 17.309 61.252 13.453 Q60.295 17.965 58.846 20.713 Q57.123 24.008 55.305 24.008 Q54.648 24.008 53.965 23.557 Q52.844 22.777 52.037 20.713 Q51.217 18.594 50.608 14.622 Q50 10.65 50 5.1 Z M77.018 24.227 Q76.703 24.227 76.416 23.96 Q76.129 23.693 76.156 23.365 Q76.648 16.762 78.275 11.484 Q79.902 6.234 82.158 4.525 Q83.088 3.828 83.963 3.828 Q86.451 3.828 88.625 9.324 Q90.525 14.15 91.934 21.984 L92.152 23.188 Q92.166 23.27 92.166 23.338 Q92.166 23.748 91.872 23.974 Q91.578 24.199 91.236 24.199 Q90.949 24.199 90.703 24.028 Q90.457 23.857 90.389 23.488 L90.184 22.299 Q89.869 20.535 89.527 18.929 Q89.186 17.322 88.816 15.873 L79.014 15.873 Q78.207 19.865 77.934 23.42 Q77.906 23.775 77.633 24.001 Q77.359 24.227 77.018 24.227 Z M79.41 14.096 L88.352 14.096 Q86.82 8.641 85.18 6.576 Q84.797 6.084 84.414 5.865 Q84.059 5.674 83.895 5.688 Q83.02 5.797 82.172 7.068 Q80.531 9.529 79.41 14.096 Z M116.709 6.535 Q116.982 6.795 116.982 7.164 Q116.982 7.697 116.47 7.978 Q115.957 8.258 115.506 7.848 Q114.344 6.781 112.177 6.193 Q110.01 5.605 107.59 5.605 Q106.346 5.605 105.143 5.77 Q100.713 6.672 98.826 9.393 Q98.211 10.281 97.938 11.218 Q97.664 12.154 97.664 13.084 Q97.664 14.779 98.416 16.372 Q99.168 17.965 100.289 19.168 Q101.602 20.576 103.598 21.506 Q105.594 22.436 108.137 22.436 Q109.504 22.436 110.939 22.135 Q112.02 21.861 113.106 21.287 Q114.193 20.713 115.062 19.947 Q115.93 19.182 116.326 18.334 Q116.682 17.582 116.682 16.775 Q116.682 15.969 116.374 15.552 Q116.066 15.135 115.499 14.93 Q114.932 14.725 114.125 14.533 Q113.141 14.301 111.596 14.301 Q110.83 14.301 109.928 14.349 Q109.025 14.396 108.232 14.472 Q107.439 14.547 107.002 14.615 L106.428 14.697 Q106.359 14.711 106.277 14.711 Q105.881 14.711 105.655 14.417 Q105.43 14.123 105.43 13.781 Q105.43 13.494 105.601 13.241 Q105.771 12.988 106.154 12.934 L106.729 12.852 Q107.193 12.783 108 12.701 Q108.807 12.619 109.736 12.564 Q110.666 12.51 111.5 12.51 Q113.277 12.51 114.761 12.838 Q116.244 13.166 117.201 13.877 Q118.459 14.82 118.459 16.83 Q118.459 19.66 115.438 21.916 Q113.605 23.283 111.336 23.857 Q109.682 24.199 108.123 24.199 Q106.674 24.199 105.293 23.898 Q101.479 23.064 98.99 20.385 Q97.637 18.936 96.762 17.028 Q95.887 15.121 95.887 13.084 Q95.887 11.895 96.242 10.705 Q96.598 9.516 97.377 8.381 Q99.674 5.059 104.814 4.02 Q104.828 4.02 104.842 4.013 Q104.855 4.006 104.869 4.006 Q106.195 3.828 107.563 3.828 Q110.365 3.828 112.84 4.546 Q115.314 5.264 116.709 6.535 Z M143.016 6.535 Q143.289 6.795 143.289 7.164 Q143.289 7.697 142.776 7.978 Q142.264 8.258 141.813 7.848 Q140.65 6.781 138.483 6.193 Q136.316 5.605 133.896 5.605 Q132.652 5.605 131.449 5.77 Q127.02 6.672 125.133 9.393 Q124.518 10.281 124.244 11.218 Q123.971 12.154 123.971 13.084 Q123.971 14.779 124.723 16.372 Q125.475 17.965 126.596 19.168 Q127.908 20.576 129.904 21.506 Q131.9 22.436 134.443 22.436 Q135.811 22.436 137.246 22.135 Q138.326 21.861 139.413 21.287 Q140.5 20.713 141.368 19.947 Q142.236 19.182 142.633 18.334 Q142.988 17.582 142.988 16.775 Q142.988 15.969 142.681 15.552 Q142.373 15.135 141.806 14.93 Q141.238 14.725 140.432 14.533 Q139.447 14.301 137.902 14.301 Q137.137 14.301 136.234 14.349 Q135.332 14.396 134.539 14.472 Q133.746 14.547 133.309 14.615 L132.734 14.697 Q132.666 14.711 132.584 14.711 Q132.188 14.711 131.962 14.417 Q131.736 14.123 131.736 13.781 Q131.736 13.494 131.907 13.241 Q132.078 12.988 132.461 12.934 L133.035 12.852 Q133.5 12.783 134.307 12.701 Q135.113 12.619 136.043 12.564 Q136.973 12.51 137.807 12.51 Q139.584 12.51 141.067 12.838 Q142.551 13.166 143.508 13.877 Q144.766 14.82 144.766 16.83 Q144.766 19.66 141.744 21.916 Q139.912 23.283 137.643 23.857 Q135.988 24.199 134.43 24.199 Q132.98 24.199 131.6 23.898 Q127.785 23.064 125.297 20.385 Q123.943 18.936 123.068 17.028 Q122.193 15.121 122.193 13.084 Q122.193 11.895 122.549 10.705 Q122.904 9.516 123.684 8.381 Q125.98 5.059 131.121 4.02 Q131.135 4.02 131.148 4.013 Q131.162 4.006 131.176 4.006 Q132.502 3.828 133.869 3.828 Q136.672 3.828 139.146 4.546 Q141.621 5.264 143.016 6.535 Z M153.217 24.773 Q152.848 24.773 152.588 24.514 Q152.328 24.254 152.328 23.885 Q152.328 23.693 152.41 23.516 Q153.408 21.342 154.406 19.161 Q155.404 16.98 156.402 14.807 L148.705 5.455 Q148.5 5.195 148.5 4.908 Q148.5 4.553 148.787 4.279 Q149.074 4.006 149.43 4.006 Q149.813 4.006 150.072 4.334 L157.223 13.002 Q158.275 10.678 159.342 8.367 Q160.408 6.057 161.461 3.746 Q161.557 3.541 161.775 3.384 Q161.994 3.227 162.268 3.227 Q162.637 3.227 162.896 3.486 Q163.156 3.746 163.156 4.115 Q163.156 4.307 163.074 4.484 L154.023 24.254 Q153.928 24.459 153.709 24.616 Q153.49 24.773 153.217 24.773 Z" fill="#414040"/>
  <path id="tagline" d="M50 37.288 L50 28.888 L53.144 28.888 Q54.212 28.888 54.98 29.23 Q55.748 29.572 56.162 30.214 Q56.576 30.856 56.576 31.768 Q56.576 32.656 56.162 33.298 Q55.748 33.94 54.98 34.288 Q54.212 34.636 53.144 34.636 L50.492 34.636 L50.888 34.216 L50.888 37.288 Z M50.888 34.288 L50.492 33.856 L53.12 33.856 Q54.38 33.856 55.034 33.31 Q55.688 32.764 55.688 31.768 Q55.688 30.76 55.034 30.208 Q54.38 29.656 53.12 29.656 L50.492 29.656 L50.888 29.236 Z M61.956 37.348 Q60.972 37.348 60.228 36.934 Q59.484 36.52 59.064 35.794 Q58.644 35.068 58.644 34.132 Q58.644 33.196 59.046 32.476 Q59.448 31.756 60.15 31.342 Q60.852 30.928 61.728 30.928 Q62.616 30.928 63.306 31.33 Q63.996 31.732 64.392 32.458 Q64.788 33.184 64.788 34.132 Q64.788 34.192 64.782 34.258 Q64.776 34.324 64.776 34.396 L59.292 34.396 L59.292 33.76 L64.32 33.76 L63.984 34.012 Q63.984 33.328 63.69 32.794 Q63.396 32.26 62.892 31.96 Q62.388 31.66 61.728 31.66 Q61.08 31.66 60.564 31.96 Q60.048 32.26 59.76 32.8 Q59.472 33.34 59.472 34.036 L59.472 34.168 Q59.472 34.888 59.79 35.434 Q60.108 35.98 60.678 36.286 Q61.248 36.592 61.98 36.592 Q62.556 36.592 63.054 36.388 Q63.552 36.184 63.912 35.764 L64.392 36.316 Q63.972 36.82 63.342 37.084 Q62.712 37.348 61.956 37.348 Z M69.52 37.348 Q68.632 37.348 68.152 36.868 Q67.672 36.388 67.672 35.512 L67.672 29.596 L68.524 29.596 L68.524 35.464 Q68.524 36.016 68.806 36.316 Q69.088 36.616 69.616 36.616 Q70.18 36.616 70.552 36.292 L70.852 36.904 Q70.6 37.132 70.246 37.24 Q69.892 37.348 69.52 37.348 Z M66.544 31.696 L66.544 30.988 L70.444 30.988 L70.444 31.696 Z M80.04 37.36 Q79.104 37.36 78.246 37.054 Q77.388 36.748 76.92 36.268 L77.268 35.584 Q77.712 36.016 78.462 36.31 Q79.212 36.604 80.04 36.604 Q80.832 36.604 81.33 36.406 Q81.828 36.208 82.062 35.872 Q82.296 35.536 82.296 35.128 Q82.296 34.636 82.014 34.336 Q81.732 34.036 81.276 33.862 Q80.82 33.688 80.268 33.556 Q79.716 33.424 79.164 33.274 Q78.612 33.124 78.15 32.872 Q77.688 32.62 77.406 32.206 Q77.124 31.792 77.124 31.12 Q77.124 30.496 77.454 29.974 Q77.784 29.452 78.468 29.134 Q79.152 28.816 80.22 28.816 Q80.928 28.816 81.624 29.014 Q82.32 29.212 82.824 29.56 L82.524 30.268 Q81.984 29.908 81.378 29.74 Q80.772 29.572 80.208 29.572 Q79.452 29.572 78.96 29.776 Q78.468 29.98 78.234 30.322 Q78 30.664 78 31.096 Q78 31.588 78.282 31.888 Q78.564 32.188 79.026 32.356 Q79.488 32.524 80.04 32.656 Q80.592 32.788 81.138 32.944 Q81.684 33.1 82.146 33.346 Q82.608 33.592 82.89 34 Q83.172 34.408 83.172 35.068 Q83.172 35.68 82.836 36.202 Q82.5 36.724 81.81 37.042 Q81.12 37.36 80.04 37.36 Z M85.924 37.288 L85.924 28.384 L86.776 28.384 L86.776 32.716 L86.608 32.392 Q86.908 31.708 87.568 31.318 Q88.228 30.928 89.14 30.928 Q89.908 30.928 90.49 31.222 Q91.072 31.516 91.402 32.116 Q91.732 32.716 91.732 33.628 L91.732 37.288 L90.88 37.288 L90.88 33.712 Q90.88 32.716 90.382 32.206 Q89.884 31.696 88.984 31.696 Q88.312 31.696 87.814 31.966 Q87.316 32.236 87.046 32.746 Q86.776 33.256 86.776 33.976 L86.776 37.288 Z M97.604 37.348 Q96.692 37.348 95.966 36.934 Q95.24 36.52 94.82 35.794 Q94.4 35.068 94.4 34.132 Q94.4 33.184 94.82 32.464 Q95.24 31.744 95.96 31.336 Q96.68 30.928 97.604 30.928 Q98.54 30.928 99.266 31.336 Q99.992 31.744 100.406 32.464 Q100.82 33.184 100.82 34.132 Q100.82 35.068 100.406 35.794 Q99.992 36.52 99.26 36.934 Q98.528 37.348 97.604 37.348 Z M97.604 36.592 Q98.288 36.592 98.816 36.286 Q99.344 35.98 99.65 35.422 Q99.956 34.864 99.956 34.132 Q99.956 33.388 99.65 32.836 Q99.344 32.284 98.816 31.978 Q98.288 31.672 97.616 31.672 Q96.944 31.672 96.416 31.978 Q95.888 32.284 95.576 32.836 Q95.264 33.388 95.264 34.132 Q95.264 34.864 95.576 35.422 Q95.888 35.98 96.416 36.286 Q96.944 36.592 97.604 36.592 Z M106.812 37.348 Q105.996 37.348 105.336 36.97 Q104.676 36.592 104.286 35.878 Q103.896 35.164 103.896 34.132 Q103.896 33.1 104.28 32.386 Q104.664 31.672 105.324 31.3 Q105.984 30.928 106.812 30.928 Q107.712 30.928 108.426 31.33 Q109.14 31.732 109.548 32.458 Q109.956 33.184 109.956 34.132 Q109.956 35.092 109.548 35.812 Q109.14 36.532 108.426 36.94 Q107.712 37.348 106.812 37.348 Z M103.56 39.616 L103.56 30.988 L104.376 30.988 L104.376 32.884 L104.292 34.144 L104.412 35.416 L104.412 39.616 Z M106.752 36.592 Q107.424 36.592 107.952 36.286 Q108.48 35.98 108.792 35.422 Q109.104 34.864 109.104 34.132 Q109.104 33.4 108.792 32.848 Q108.48 32.296 107.952 31.984 Q107.424 31.672 106.752 31.672 Q106.08 31.672 105.546 31.984 Q105.012 32.296 104.706 32.848 Q104.4 33.4 104.4 34.132 Q104.4 34.864 104.706 35.422 Q105.012 35.98 105.546 36.286 Q106.08 36.592 106.752 36.592 Z M112.6 37.348 Q112.336 37.348 112.15 37.156 Q111.964 36.964 111.964 36.688 Q111.964 36.4 112.15 36.22 Q112.336 36.04 112.6 36.04 Q112.864 36.04 113.05 36.22 Q113.236 36.4 113.236 36.688 Q113.236 36.964 113.05 37.156 Q112.864 37.348 112.6 37.348 Z" fill="#908F8D"/>
</svg>